<?xml version="1.0" encoding="utf-8"?>
<!-- Generator: Adobe Illustrator 21.0.2, SVG Export Plug-In . SVG Version: 6.00 Build 0)  -->
<svg version="1.1" id="Layer_1" xmlns="http://www.w3.org/2000/svg" xmlns:xlink="http://www.w3.org/1999/xlink" x="0px" y="0px"
	 viewBox="0 0 74 66" style="enable-background:new 0 0 74 66;" xml:space="preserve">
<style type="text/css">
	.st0{fill:#009949;}
	.st1{fill:#63BD6F;}
	.st2{fill:#236734;}
	.st3{fill:#0B8040;}
	.st4{fill:#008C45;}
	.st5{fill:#93C588;}
	.st6{fill:#D7D7D7;}
</style>
<polygon class="st0" points="17.5,22.5 18,49 45,63 43.5,34 "/>
<polygon class="st1" points="43.5,34 67.5,18 67,44 45,63 "/>
<polygon class="st0" points="17.5,22.5 38,10 67.5,18 43.5,34 "/>
<polygon class="st1" points="38,10 40,5 71.2,11 67.5,18 "/>
<polyline class="st1" points="17.5,24.5 7,15 40.5,28.5 43.5,34 16,24.5 "/>
<polygon class="st2" points="38,10 38,27.5 21,20 "/>
<polygon class="st3" points="18,33.5 43.5,34 17.5,24.5 "/>
<polygon class="st4" points="41.5,35 18,44 18,33.5 "/>
<polygon class="st5" points="67.5,18 43.5,34 62.5,28.5 67,44 "/>
<polygon class="st5" points="7,15 38.5,30 43.5,34 40,25.5 "/>
<polygon class="st6" points="18,49 4,51 45,63 45,63 "/>
</svg>
