<?xml version="1.0" encoding="utf-8"?>
<!-- Generator: Adobe Illustrator 21.0.2, SVG Export Plug-In . SVG Version: 6.00 Build 0)  -->
<svg version="1.1" id="Layer_1" xmlns="http://www.w3.org/2000/svg" xmlns:xlink="http://www.w3.org/1999/xlink" x="0px" y="0px"
	 viewBox="0 0 57 82" style="enable-background:new 0 0 57 82;" xml:space="preserve">
<style type="text/css">
	.st0{fill:#D7D7D7;}
	.st1{fill:#009949;}
	.st2{fill:#63BD6F;}
	.st3{fill:#93C588;}
	.st4{fill:#BCDEB6;}
	.st5{fill:#ECF4EA;}
	.st6{fill:#0B8040;}
</style>
<ellipse class="st0" cx="23.2" cy="74.9" rx="18.2" ry="4.1"/>
<g>
	<path class="st1" d="M28.6,16.2c0-0.1,0-0.2,0-0.3c0-0.9,0-1.7,0-2.6c0-0.2,0-0.3-0.3-0.4c-0.4-0.1-0.4-0.4-0.2-0.7
		c0.1-0.1,0.2-0.2,0.3-0.4c0.2-0.3,0.2-0.5-0.2-0.6c-0.3-0.1-0.5-0.5-0.2-0.8c0.4-0.4,0.5-0.9,0.4-1.4c0-0.2,0.1-0.3,0.3-0.3
		c0.4,0,0.7-0.1,1-0.1c2.3,0,4.6-0.1,6.9-0.1c0.2,0,0.4-0.1,0.6-0.1c0.3,0,0.6,0.1,0.9,0.1c0.6,0,1.1,0.1,1.7,0.1
		c0.2,0,0.3,0.1,0.3,0.3c0,0.4,0,0.9,0,1.3c0,0.3,0.1,0.6,0.3,0.8c0.1,0.1,0.2,0.3,0.3,0.4c0.1,0.2,0,0.4-0.2,0.4
		c-0.4,0.1-0.5,0.4-0.2,0.7c0.1,0.1,0.2,0.2,0.3,0.3c0.3,0.3,0.2,0.6-0.2,0.7c-0.1,0-0.2,0.1-0.2,0.2c0,0.7,0,1.4,0,2.2
		c0.5,0.1,0.5,0.1,0.5,0.7c0,0.9,0,0.9,0.8,1.1c0.5,0.1,0.9,0.3,1.4,0.4c1.3,0.4,2.4,1.1,3.5,1.9c1.2,0.9,2.1,2.1,2.8,3.4
		c0.6,1.1,1,2.4,1.1,3.7c0.1,1.8,0.1,3.5,0.1,5.3c0,2,0,4-0.1,5.9c0,1.7-0.1,3.4-0.1,5.1c0,1.7,0,3.3,0,5c0,2.1-0.1,4.2-0.1,6.3
		c0,0.9,0,1.8,0,2.8c0,2.6-0.1,5.1-0.1,7.7c0,1,0,2-0.1,3c0,1.1,0,2.3-0.1,3.4c-0.1,1.3-0.7,2.3-1.7,3.2c-0.2,0.1-0.3,0.3-0.4,0.5
		c-0.4,0.4-0.7,0.8-1.1,1.1c-0.3,0.2-0.7,0.4-1.1,0.6c-0.5,0.2-0.9,0.5-1.4,0.6c-0.5,0.1-0.9,0.1-1.4,0.2c-1.1,0.2-2.2,0.4-3.4,0.5
		c-0.9,0.1-1.8,0.1-2.7,0.2c-1.9,0.2-3.9,0-5.8-0.1c-0.5,0-0.9-0.2-1.4-0.2c-0.8-0.1-1.6-0.3-2.4-0.2c-0.4,0-0.7-0.1-1.1-0.3
		c-0.4-0.2-0.7-0.4-1.1-0.4c-0.2,0-0.4-0.2-0.6-0.3c-0.2-0.1-0.4-0.2-0.7-0.4c-0.6-0.4-1.3-0.8-1.8-1.3c-0.4-0.4-0.8-0.8-1.1-1.3
		c-0.4-0.6-0.8-1.1-0.9-1.8c0-0.3,0-0.5-0.1-0.8c0-0.2-0.1-0.3-0.1-0.5c0-0.3,0-0.5,0-0.8c0-0.7-0.1-1.5-0.1-2.2c0-0.4,0-0.8,0-1.2
		c0-0.6,0-1.2,0-1.8c0-0.5,0-1,0-1.5c0-2-0.1-4-0.1-5.9c0-0.5,0-1,0-1.5c0-1.4-0.1-2.8-0.1-4.2c0-1.6-0.1-3.2-0.1-4.8
		c-0.1-3.2-0.2-6.3-0.3-9.5c-0.1-3.1-0.2-6.3-0.2-9.4c0-2,0.7-3.9,1.8-5.5c0.9-1.4,2.2-2.5,3.6-3.4c1.1-0.6,2.2-1,3.4-1.4
		c0.7-0.2,0.7,0,0.7-0.9c0-0.1,0-0.2,0-0.2C28.1,16.3,28.1,16.3,28.6,16.2z"/>
</g>
<ellipse class="st2" cx="34.8" cy="10.8" rx="6.4" ry="1.8"/>
<g>
	<path class="st3" d="M30.5,18.7c0-0.1,0-0.2,0-0.3c0-0.8,0-1.6,0-2.4c0-0.2,0-0.3-0.2-0.4c-0.2-0.1-0.3-0.4-0.1-0.6
		c0.1-0.1,0.2-0.2,0.2-0.3c0.1-0.3,0.1-0.5-0.1-0.6c-0.2-0.1-0.3-0.5-0.1-0.7c0.3-0.4,0.3-0.8,0.3-1.3c0-0.2,0-0.3,0.2-0.3
		c0.2,0,0.5-0.1,0.7-0.1c1.5,0,3.1,0,4.6-0.1c0.1,0,0.3-0.1,0.4-0.1c0.2,0,0.4,0,0.6,0.1c0.4,0,0.8,0.1,1.2,0.1
		c0.1,0,0.2,0.1,0.2,0.3c0,0.4,0,0.8,0,1.2c0,0.3,0.1,0.5,0.2,0.8c0.1,0.1,0.1,0.2,0.2,0.4c0,0.2,0,0.3-0.2,0.4
		c-0.2,0.1-0.3,0.4-0.1,0.7c0.1,0.1,0.1,0.2,0.2,0.3c0.2,0.3,0.1,0.6-0.1,0.7c-0.1,0-0.1,0.1-0.1,0.2c0,0.7,0,1.3,0,2
		c0.4,0.1,0.4,0.1,0.3,0.6c0,0.8,0,0.8,0.5,1c0.3,0.1,0.6,0.2,0.9,0.4c0.9,0.4,1.6,1,2.4,1.8c0.8,0.8,1.4,1.9,1.9,3.2
		c0.4,1.1,0.7,2.2,0.7,3.4c0.1,1.6,0,3.3,0,4.9c0,1.8,0,3.7,0,5.5c0,1.6,0,3.1-0.1,4.7c0,1.5,0,3.1,0,4.6c0,2,0,3.9-0.1,5.9
		c0,0.9,0,1.7,0,2.6c0,2.4-0.1,4.8-0.1,7.2c0,0.9,0,1.9,0,2.8c0,1.1,0,2.1-0.1,3.2c-0.1,1.2-0.5,2.2-1.1,2.9
		c-0.1,0.1-0.2,0.3-0.3,0.4c-0.2,0.3-0.5,0.7-0.8,1c-0.2,0.2-0.5,0.4-0.7,0.5c-0.3,0.2-0.6,0.4-1,0.6C40.6,76,40.3,76,40,76
		c-0.8,0.2-1.5,0.4-2.3,0.5c-0.6,0.1-1.2,0.1-1.8,0.2c-1.3,0.2-2.6,0-3.9-0.1c-0.3,0-0.6-0.1-0.9-0.2c-0.5-0.1-1.1-0.3-1.6-0.2
		c-0.3,0-0.5-0.1-0.7-0.3c-0.2-0.2-0.5-0.3-0.8-0.4c-0.1,0-0.3-0.2-0.4-0.3c-0.1-0.1-0.3-0.2-0.4-0.3c-0.4-0.4-0.9-0.7-1.2-1.2
		c-0.3-0.3-0.5-0.8-0.7-1.2c-0.3-0.5-0.6-1.1-0.6-1.7c0-0.3,0-0.5,0-0.8c0-0.1-0.1-0.3-0.1-0.4c0-0.2,0-0.5,0-0.7
		c0-0.7,0-1.4-0.1-2.1c0-0.4,0-0.7,0-1.1c0-0.5,0-1.1,0-1.6c0-0.5,0-0.9,0-1.4c0-1.8-0.1-3.7-0.1-5.5c0-0.5,0-0.9,0-1.4
		c0-1.3,0-2.6-0.1-3.9c0-1.5,0-3-0.1-4.5c-0.1-2.9-0.1-5.9-0.2-8.8c-0.1-2.9-0.1-5.8-0.1-8.8c0-1.9,0.5-3.6,1.2-5.2
		c0.6-1.3,1.5-2.4,2.4-3.2c0.7-0.6,1.5-0.9,2.3-1.3c0.5-0.2,0.5,0,0.5-0.9c0-0.1,0-0.2,0-0.2C30.2,18.7,30.2,18.7,30.5,18.7z"/>
</g>
<g>
	<path class="st4" d="M31.8,26.3c0-0.1,0-0.1,0-0.2c0-0.6,0-1.3,0-1.9c0-0.1,0-0.2-0.1-0.3c-0.1-0.1-0.2-0.3-0.1-0.5
		c0-0.1,0.1-0.2,0.1-0.3c0.1-0.2,0.1-0.4-0.1-0.4c-0.1-0.1-0.2-0.4-0.1-0.6c0.2-0.3,0.2-0.6,0.2-1c0-0.1,0-0.2,0.1-0.2
		c0.1,0,0.3-0.1,0.4-0.1c0.9,0,1.9,0,2.8-0.1c0.1,0,0.2,0,0.3,0c0.1,0,0.2,0,0.4,0.1c0.2,0,0.5,0.1,0.7,0.1c0.1,0,0.1,0.1,0.1,0.2
		c0,0.3,0,0.6,0,0.9c0,0.2,0,0.4,0.1,0.6c0,0.1,0.1,0.2,0.1,0.3c0,0.1,0,0.3-0.1,0.3c-0.1,0.1-0.2,0.3-0.1,0.5
		c0,0.1,0.1,0.1,0.1,0.2c0.1,0.2,0.1,0.4-0.1,0.5c0,0-0.1,0.1-0.1,0.1c0,0.5,0,1,0,1.6c0.2,0.1,0.2,0.1,0.2,0.5c0,0.6,0,0.6,0.3,0.8
		c0.2,0.1,0.4,0.2,0.6,0.3c0.5,0.3,1,0.8,1.4,1.4c0.5,0.7,0.9,1.5,1.1,2.5c0.2,0.8,0.4,1.7,0.4,2.7c0,1.3,0,2.5,0,3.8
		c0,1.4,0,2.9,0,4.3c0,1.2,0,2.5,0,3.7c0,1.2,0,2.4,0,3.6c0,1.5,0,3.1-0.1,4.6c0,0.7,0,1.3,0,2c0,1.9,0,3.7-0.1,5.6
		c0,0.7,0,1.5,0,2.2c0,0.8,0,1.6,0,2.5c0,0.9-0.3,1.7-0.7,2.3c-0.1,0.1-0.1,0.2-0.2,0.3c-0.1,0.3-0.3,0.5-0.5,0.8
		c-0.1,0.2-0.3,0.3-0.4,0.4c-0.2,0.2-0.4,0.4-0.6,0.5C37.8,71,37.6,71,37.4,71c-0.5,0.1-0.9,0.3-1.4,0.4c-0.4,0.1-0.7,0.1-1.1,0.1
		c-0.8,0.1-1.6,0-2.4-0.1c-0.2,0-0.4-0.1-0.6-0.2c-0.3-0.1-0.6-0.2-1-0.2c-0.2,0-0.3-0.1-0.4-0.2c-0.1-0.1-0.3-0.3-0.5-0.3
		c-0.1,0-0.2-0.1-0.2-0.2c-0.1-0.1-0.2-0.2-0.3-0.3c-0.3-0.3-0.5-0.6-0.7-0.9c-0.2-0.3-0.3-0.6-0.4-0.9c-0.2-0.4-0.3-0.8-0.4-1.3
		c0-0.2,0-0.4,0-0.6c0-0.1,0-0.2,0-0.3c0-0.2,0-0.4,0-0.5c0-0.5,0-1.1,0-1.6c0-0.3,0-0.6,0-0.9c0-0.4,0-0.9,0-1.3c0-0.4,0-0.7,0-1.1
		c0-1.4,0-2.9,0-4.3c0-0.4,0-0.7,0-1.1c0-1,0-2,0-3c0-1.2,0-2.3,0-3.5c0-2.3-0.1-4.6-0.1-6.9c0-2.3-0.1-4.6-0.1-6.8
		c0-1.5,0.3-2.8,0.7-4c0.4-1,0.9-1.8,1.5-2.5c0.4-0.5,0.9-0.7,1.4-1c0.3-0.1,0.3,0,0.3-0.7c0-0.1,0-0.1,0-0.2
		C31.6,26.3,31.6,26.3,31.8,26.3z"/>
</g>
<path class="st5" d="M38.7,61.2L38.7,61.2c1,0,1.8-0.8,1.8-1.8V37.5c0-1-0.8-1.8-1.8-1.8h0c-1,0-1.8,0.8-1.8,1.8v21.9
	C36.9,60.4,37.7,61.2,38.7,61.2z"/>
<ellipse class="st1" cx="34.5" cy="7.5" rx="8" ry="3.5"/>
<ellipse class="st6" cx="34.1" cy="6.1" rx="5.9" ry="1.8"/>
<path class="st1" d="M36.8,22.9c0,0-10.8-4.6-10.8,16.4C26,39.3,27.2,25.6,36.8,22.9z"/>
<path class="st2" d="M40.4,64.2c0,0-3.9,6.8-10.8,6c0,0-2.3,5.2,8.2,3.4C37.8,73.5,41.6,74.4,40.4,64.2z"/>
</svg>
