<?xml version="1.0" encoding="utf-8"?>
<!-- Generator: Adobe Illustrator 21.0.2, SVG Export Plug-In . SVG Version: 6.00 Build 0)  -->
<svg version="1.1" id="Layer_1" xmlns="http://www.w3.org/2000/svg" xmlns:xlink="http://www.w3.org/1999/xlink" x="0px" y="0px"
	 viewBox="0 0 67 52" style="enable-background:new 0 0 67 52;" xml:space="preserve">
<style type="text/css">
	.st0{fill:#D7D7D7;}
	.st1{fill:#63BD6F;}
	.st2{fill:#009949;}
	.st3{fill:#0B8040;}
	.st4{fill:#93C588;}
	.st5{fill:#149F51;}
	.st6{fill:#BCDEB6;}
	.st7{fill:none;stroke:#0B8040;stroke-width:0.5429;stroke-miterlimit:10;}
	.st8{fill:#ECF4EA;}
</style>
<path class="st0" d="M15.7,35.1l-9.3,4.2c-1.6,0.7-1.6,5.8,3.3,7.3L35.5,50L31,48L17.7,35.5C17.2,35,16.4,34.8,15.7,35.1z"/>
<path class="st1" d="M15.3,24.1l0.2,11.8c0,0,0,3.7,3.2,5.4l11,7.1c0,0,5.9,2.5,12.7,0l17.4-6.8c0,0,3.2-0.7,2.7-6.6V24.1l-29.9,8.3
	L15.3,24.1z"/>
<path class="st2" d="M14.4,16.8v5.6c0,0-0.2,2.7,3.2,4.1l11,6.6c0,0,6.1,3.2,11.8,1.2L60.9,27c0,0,3.2-1.4,2.5-5.2l-0.5-3.7
	c0,0-0.5-2-5.9-4.6l-8.6-4.4c0,0-4.9-4.1-15.2-0.5l-14.7,4.6C18.5,13.3,14.1,15.1,14.4,16.8z"/>
<path class="st3" d="M21.9,16.5l10.7,6.3c0,0,1.4,2.7,8.8,0.2l14.9-5.1c0,0,3.6-1.2-3.3-3.6L45.8,10c0,0-3.6-1.9-7.6-0.5l-14,4.3
	C24.3,13.8,20.7,14.1,21.9,16.5z"/>
<path class="st1" d="M22.2,17.9l10.7,6.3c0,0,1.4,2.7,8.8,0.2l14.9-5.1c0,0,3.6-1.2-3.3-3.6l-7.1-4.3c0,0-3.6-1.9-7.6-0.5l-14,4.3
	C24.6,15.2,21,15.5,22.2,17.9z"/>
<polygon class="st4" points="39.3,36.6 39.6,47.6 47,44.9 47,33.2 "/>
<path class="st5" d="M58.2,28.3l-0.5,13c0,0,3.7,0,3.7-4.4l-0.5-9.8l-3.7,0.7L58.2,28.3z"/>
<path class="st2" d="M16.2,27.1l0.7,10.3c0,0,9.8,7.9,13.4,9.3L29.1,35L16.2,27.1z"/>
<path class="st3" d="M16.9,18.5l-0.2,3.8L35,32.5v-4.5c0,0-1.2,0.3-5.2-2.4L16.9,18.5z"/>
<path class="st1" d="M61.5,18.9c0,0-21,8.2-23.2,8.5L38,32.1l22.9-8.2L61.5,18.9z"/>
<path class="st6" d="M27.7,17.4l7.7,4.4c0,0,1,1.9,6.3,0.2l10.8-3.6c0,0,2.6-0.9-2.4-2.6L45,12.8c0,0-2.6-1.3-5.4-0.3l-10,3.1
	C29.4,15.5,26.8,15.7,27.7,17.4z"/>
<path class="st7" d="M14.4,22.8l17.2,9.4c0,0,3.4,3.1,8.6,1.1l21.4-7.8"/>
<path class="st8" d="M39.2,20.3c3,0.1,6.1-0.5,8.9-1.7c0.2-0.7-0.1-1.4-0.6-1.9c-0.5-0.5-1.5-0.3-1.8-1.2c-0.4-1.5-2.8-1.4-4.1-2.2
	c-0.3-0.2-0.7-0.3-1-0.3s-0.7,0.5-0.5,0.8c1.6,1.3,3.3,2.7,4.9,4C43,18.7,41.1,19.5,39.2,20.3z"/>
<path class="st6" d="M35.4,47.9h-0.2c-0.5,0-0.9-0.4-0.9-0.9V36.8c0-0.5,0.4-0.9,0.9-0.9h0.2c0.5,0,0.9,0.4,0.9,0.9V47
	C36.3,47.5,35.9,47.9,35.4,47.9z"/>
<polygon class="st3" points="16.2,27.1 16.9,37.3 19.3,38.7 18.2,28.5 "/>
<polygon class="st2" points="39.3,36.6 39.6,47.6 41.9,46.7 42.2,34.9 "/>
</svg>
